<svg version="1.1" id="Layer_1" xmlns="http://www.w3.org/2000/svg" xmlns:xlink="http://www.w3.org/1999/xlink" x="0px" y="0px"
	 width="100%" viewBox="0 0 1024 1024" enable-background="new 0 0 1024 1024" xml:space="preserve">
<path fill="#000000" opacity="1.000000" stroke="none" 
	d="
M372.872925,430.063965 
	C392.751923,446.073517 409.384491,464.226501 418.600281,488.138214 
	C425.511871,506.071320 428.300964,524.581177 426.529144,543.838867 
	C425.885620,550.833496 424.550842,557.635864 423.124725,564.451477 
	C422.630432,566.813599 422.174835,569.640747 419.063690,570.137817 
	C416.170776,570.600037 415.088806,568.195312 413.820892,566.271423 
	C394.856995,537.496094 371.287445,513.362183 341.893555,495.158234 
	C329.282349,487.347961 316.168671,480.545044 301.307434,477.120667 
	C306.173584,481.190338 310.977356,485.337494 315.915955,489.317291 
	C350.896545,517.506653 381.938232,549.349548 406.895294,586.893066 
	C432.302399,625.113647 449.701294,666.727173 460.165558,712.576111 
	C463.384979,693.869019 467.580872,676.530396 472.663177,659.416016 
	C488.607086,605.725891 509.430267,554.110596 538.855835,506.272919 
	C558.444824,474.426727 580.938232,444.686066 605.481506,416.480316 
	C630.896179,387.273193 658.580139,360.346558 687.312378,334.453857 
	C689.428467,332.546844 692.014832,330.895020 693.233582,327.358002 
	C688.269470,328.204010 684.780334,330.839355 681.156921,332.958832 
	C645.457947,353.840149 612.663818,378.604248 583.895874,408.328125 
	C547.873169,445.547882 517.384033,486.821655 495.418457,534.002747 
	C492.539093,540.187439 490.224060,546.633667 487.389160,552.840637 
	C484.389587,559.408142 479.350800,560.041992 474.686340,554.409851 
	C466.531677,544.563354 460.777344,533.252686 455.813171,521.589111 
	C446.828125,500.478180 441.506897,478.548553 440.527985,455.465149 
	C438.432556,406.054382 453.689209,362.839508 486.002716,325.652191 
	C506.492188,302.072296 532.632385,286.202118 560.319336,272.552948 
	C594.240356,255.830505 630.274414,245.365921 666.648071,235.649719 
	C700.501160,226.606812 733.490295,215.122177 763.292114,196.043381 
	C767.078613,193.619308 770.717224,190.958939 774.549561,188.612656 
	C784.353455,182.610474 790.567444,184.794022 793.642822,195.755341 
	C798.314636,212.406479 800.845276,229.503616 803.320374,246.587784 
	C805.556702,262.023071 807.447937,277.505096 808.659973,293.059418 
	C810.484619,316.475372 811.009644,339.885071 809.588440,363.373657 
	C808.734680,377.484558 807.330444,391.501282 805.314636,405.463928 
	C798.483826,452.778015 785.856995,497.963440 755.275818,536.125061 
	C722.607666,576.890930 680.316650,601.711670 629.013062,611.457458 
	C608.100525,615.430054 587.020874,615.993835 565.891235,615.186829 
	C557.141113,614.852478 548.298279,613.934998 539.802612,611.497559 
	C535.607117,610.293823 533.709106,611.607849 531.828857,615.428345 
	C512.979736,653.728516 499.268982,693.689209 492.594757,735.921448 
	C491.170258,744.935425 490.165985,754.028564 490.253937,763.225647 
	C490.394348,777.904541 483.107239,785.927002 468.477692,787.215881 
	C463.859955,787.622681 459.061646,787.758423 454.526611,786.973938 
	C443.277161,785.027954 437.339783,777.371460 436.691010,764.981018 
	C434.684906,726.665649 423.652527,690.876038 406.429993,656.818604 
	C401.464233,646.998901 395.798431,637.586731 389.936279,628.281677 
	C387.177673,623.902771 384.691803,621.311096 378.224365,621.994629 
	C364.152252,623.481750 350.031738,621.769653 336.075958,618.900391 
	C304.091675,612.324341 277.457397,596.573181 255.960922,572.238098 
	C239.112961,553.165344 228.646317,530.590637 221.701920,506.294800 
	C216.488235,488.054199 213.604416,469.400696 211.516251,450.558685 
	C209.847244,435.498962 209.539780,420.397644 208.938705,405.302338 
	C208.727875,400.007538 209.297989,394.665588 209.747314,389.365112 
	C210.204132,383.976288 212.742294,382.076630 218.187912,383.424194 
	C250.275864,391.364716 283.289215,394.903809 315.181305,403.689545 
	C335.664124,409.332184 355.290314,417.093628 372.872925,430.063965 
z"/>
</svg>