<svg version="1.1" id="Layer_1" xmlns="http://www.w3.org/2000/svg" xmlns:xlink="http://www.w3.org/1999/xlink" x="0px" y="0px"
	 width="100%" viewBox="0 0 1024 1024" enable-background="new 0 0 1024 1024" xml:space="preserve">
<path fill="#000000" opacity="1.000000" stroke="none" 
	d="
M143.000061,386.700562 
	C171.486664,386.703003 199.473267,386.701141 227.459854,386.710846 
	C235.855820,386.713745 237.260590,388.142487 237.268707,396.610962 
	C237.276062,404.273956 237.285660,411.936951 237.271393,419.599915 
	C237.257919,426.831787 236.752731,427.361755 229.678543,427.364990 
	C205.690033,427.375977 181.700180,427.499420 157.714081,427.258087 
	C152.614044,427.206757 151.099411,428.785889 151.240997,433.815979 
	C151.573639,445.634308 151.515015,457.471863 151.263107,469.294159 
	C151.169662,473.678955 152.612991,475.083710 156.976166,475.049683 
	C177.964706,474.885895 198.955383,474.979858 219.945267,475.005463 
	C227.067581,475.014160 227.338730,475.302063 227.347031,482.219421 
	C227.356232,489.882385 227.209442,497.548981 227.407242,505.206848 
	C227.508957,509.145142 225.942612,510.771545 222.109436,510.391205 
	C221.944565,510.374817 221.776367,510.395264 221.609909,510.391022 
	C200.136353,509.844086 178.700058,512.119080 157.230606,511.279449 
	C152.608353,511.098633 151.216019,512.666382 151.255600,517.266907 
	C151.454803,540.420776 151.350342,563.577271 151.338669,586.732849 
	C151.335129,593.771301 150.757248,594.326599 143.556717,594.334595 
	C133.894684,594.345337 124.232620,594.347839 114.570602,594.334534 
	C107.310394,594.324585 106.832855,593.887329 106.829079,586.746643 
	C106.808083,547.098999 106.810455,507.451324 106.805611,467.803650 
	C106.802635,443.481964 106.794098,419.160309 106.803291,394.838623 
	C106.805855,388.051392 108.128403,386.732056 115.013916,386.707336 
	C124.175850,386.674469 133.337997,386.700195 143.000061,386.700562 
z"/>
<path fill="#000000" opacity="1.000000" stroke="none" 
	d="
M422.986084,476.110107 
	C442.286011,444.128418 487.874084,437.021179 517.659790,451.909180 
	C536.362183,461.257263 546.387390,477.088379 550.248535,497.145264 
	C551.852295,505.476074 552.433838,513.955505 552.098816,522.455566 
	C551.830200,529.270508 550.148376,530.947083 543.262146,530.960266 
	C514.772766,531.014893 486.283173,530.984131 457.793640,530.996765 
	C450.004669,531.000244 448.837372,532.648438 451.433044,539.869141 
	C456.690491,554.494324 471.184357,564.516541 486.704437,564.886902 
	C499.881287,565.201355 511.544525,561.305298 522.337036,554.003052 
	C529.813660,548.944336 530.504028,549.136536 536.048462,556.261658 
	C539.419250,560.593384 542.607422,565.066650 545.938721,569.429688 
	C547.787598,571.851318 547.554199,573.969727 545.393372,576.037781 
	C532.013367,588.843262 516.007080,595.529175 497.643524,597.473145 
	C485.062439,598.804810 472.698212,598.190125 460.671021,594.647156 
	C435.827301,587.328613 420.825897,570.037659 413.957458,545.662598 
	C407.146973,521.492920 410.224976,498.272278 422.986084,476.110107 
M459.795441,484.295258 
	C455.593689,488.951904 452.783203,494.313507 451.027710,500.357910 
	C450.087494,503.595245 451.069489,504.756042 454.147369,504.777100 
	C457.813110,504.802185 461.479095,504.803375 465.144958,504.805298 
	C479.808807,504.813049 494.472717,504.833191 509.136536,504.815277 
	C515.992554,504.806915 516.285278,504.407837 514.652466,497.604553 
	C513.829346,494.174713 512.295654,491.115692 510.282623,488.172668 
	C500.811127,474.325256 476.304321,467.744904 459.795441,484.295258 
z"/>
<path fill="#000000" opacity="1.000000" stroke="none" 
	d="
M800.330566,566.551453 
	C783.510498,537.617554 782.598755,508.234894 798.026428,479.213837 
	C809.604797,457.433746 829.271973,446.627563 853.671387,444.737457 
	C870.458496,443.437042 886.709900,445.470673 900.767273,455.797119 
	C916.666504,467.476562 925.265015,483.373962 927.458618,502.970978 
	C928.203430,509.625397 928.328674,516.249207 928.312134,522.904297 
	C928.295288,529.711792 927.028320,531.001160 920.044983,531.011292 
	C895.383911,531.046936 870.722778,531.023621 846.061646,531.025879 
	C841.729309,531.026245 837.396301,530.997864 833.064819,531.061890 
	C827.581177,531.142883 826.477173,532.506714 827.570374,537.661194 
	C830.529053,551.612122 846.053284,564.156189 860.414978,564.821472 
	C874.882141,565.491577 887.522339,560.866089 899.339478,553.014282 
	C905.348999,549.021362 906.397278,549.201538 911.002197,554.707153 
	C914.630310,559.044861 917.885742,563.692017 921.422546,568.109009 
	C923.925415,571.234802 923.308838,573.648071 920.507141,576.280396 
	C907.823914,588.196777 892.773621,594.903320 875.641846,597.343811 
	C860.166931,599.548279 845.068848,598.376709 830.631165,592.198364 
	C818.088806,586.831299 807.902832,578.465149 800.330566,566.551453 
M855.852661,474.398468 
	C841.475220,476.466461 831.503540,485.320923 827.817566,499.126770 
	C826.852905,502.739868 827.258362,504.934784 831.721497,504.920135 
	C850.187073,504.859619 868.652954,504.907928 887.118774,504.926483 
	C890.812195,504.930206 892.084534,503.549713 891.158325,499.635193 
	C887.520569,484.260284 874.242920,474.395020 855.852661,474.398468 
z"/>
<path fill="#000000" opacity="1.000000" stroke="none" 
	d="
M372.994568,594.339722 
	C366.497559,594.329590 360.498962,594.263489 354.501862,594.330383 
	C351.118805,594.368164 349.631073,592.774658 349.662384,589.473450 
	C349.703094,585.181458 349.672333,580.888733 349.672333,576.787170 
	C348.170593,576.155579 347.636749,576.997192 347.155975,577.557434 
	C336.094055,590.447632 322.365143,597.690552 305.152405,598.508667 
	C285.556488,599.440186 269.491577,593.467834 259.043854,576.103638 
	C254.401306,568.387756 252.818222,559.550232 252.755997,550.699524 
	C252.534637,519.211487 252.655838,487.720856 252.679153,456.231232 
	C252.683914,449.780609 253.802673,448.693420 260.261414,448.664062 
	C268.425232,448.626984 276.589478,448.626343 284.753296,448.659637 
	C290.971710,448.684998 292.320099,450.023102 292.326935,456.357788 
	C292.356079,483.348877 292.291504,510.340149 292.367615,537.331055 
	C292.404999,550.580505 300.474396,561.546997 311.954315,564.332642 
	C329.516907,568.594238 348.502411,553.928040 348.611084,535.751709 
	C348.763489,510.261017 348.652191,484.768768 348.665955,459.277161 
	C348.670410,451.019196 350.003143,449.687317 358.218781,449.676086 
	C366.049530,449.665375 373.880768,449.626282 381.710876,449.699615 
	C387.255829,449.751587 389.312653,451.722046 389.317596,457.212067 
	C389.357300,501.030914 389.299713,544.849976 389.405914,588.668579 
	C389.416595,593.075806 387.753021,594.680176 383.486603,594.382812 
	C380.170715,594.151611 376.825714,594.338379 372.994568,594.339722 
z"/>
<path fill="#000000" opacity="1.000000" stroke="none" 
	d="
M652.667664,468.999939 
	C652.669250,443.667511 652.661377,418.835114 652.679749,394.002716 
	C652.684448,387.722076 653.681763,386.695587 659.880920,386.663300 
	C668.546997,386.618164 677.215515,386.767029 685.879028,386.611176 
	C690.740479,386.523743 692.946106,388.835022 693.130005,393.459106 
	C693.209412,395.456482 693.211060,397.457794 693.211182,399.457336 
	C693.216309,461.454987 693.218872,523.452637 693.215454,585.450256 
	C693.215027,593.834473 692.728333,594.324524 684.538025,594.330994 
	C676.205017,594.337585 667.871826,594.350891 659.539001,594.314148 
	C653.125122,594.285889 652.677185,593.858643 652.674561,587.495544 
	C652.658691,548.163696 652.667419,508.831818 652.667664,468.999939 
z"/>
<path fill="#000000" opacity="1.000000" stroke="none" 
	d="
M726.679810,397.141052 
	C726.768433,387.583801 727.693665,386.653503 736.670898,386.650269 
	C744.330688,386.647522 751.990540,386.628387 759.650146,386.662598 
	C766.064270,386.691254 766.349854,386.978912 766.351257,393.536133 
	C766.362915,446.987976 766.361328,500.439819 766.362183,553.891663 
	C766.362366,565.048279 766.372864,576.204895 766.346375,587.361450 
	C766.330688,593.954773 765.939270,594.321289 759.148376,594.331299 
	C750.822571,594.343567 742.496643,594.344604 734.170898,594.317688 
	C727.297729,594.295410 726.692810,593.731934 726.687988,586.949829 
	C726.664551,554.146057 726.669922,521.342285 726.670044,488.538513 
	C726.670105,458.232452 726.676575,427.926422 726.679810,397.141052 
z"/>
<path fill="#000000" opacity="1.000000" stroke="none" 
	d="
M579.647827,527.999878 
	C579.646851,503.341339 579.640869,479.182770 579.648926,455.024231 
	C579.651184,448.278229 579.820557,448.086853 586.730774,448.062439 
	C595.227661,448.032410 603.725342,448.148071 612.221619,448.073334 
	C616.566589,448.035126 618.592529,449.164612 618.553650,454.329041 
	C618.294006,488.806946 618.375366,523.287964 618.470459,557.767639 
	C618.497986,567.751648 618.966675,577.725830 618.607666,587.723145 
	C618.437134,592.472534 616.472839,594.362427 611.955994,594.335327 
	C603.126038,594.282349 594.292969,594.195984 585.466125,594.371521 
	C581.174255,594.456848 579.565125,592.801575 579.594482,588.479431 
	C579.730591,568.487122 579.650696,548.493225 579.647827,527.999878 
z"/>
<path fill="#000000" opacity="1.000000" stroke="none" 
	d="
M619.998657,418.614563 
	C614.010681,428.685120 604.524597,433.029694 593.036621,431.233551 
	C583.703735,429.774353 576.211121,422.351837 574.056824,412.431366 
	C571.702148,401.588074 579.707703,389.790680 591.313660,386.877686 
	C605.427490,383.335236 620.221008,392.072510 621.986633,406.108429 
	C622.530945,410.435120 621.492798,414.322723 619.998657,418.614563 
z"/>
</svg>